<svg xmlns="http://www.w3.org/2000/svg" xmlns:xlink="http://www.w3.org/1999/xlink" version="1.1" id="Ebene_1" x="0px" y="0px" style="enable-background:new 0 0 841.9 300;" xml:space="preserve" viewBox="193.6 249.5 455.1 96.9">
<style type="text/css">
	.st0{fill-rule:evenodd;clip-rule:evenodd;fill:#971135;}
	.st1{fill:#971135;}
</style>
<path class="st0" d="M216.8,319.9L216.8,319.9v-58.6h-23.2v-11.8h34.9v11.8v15.8v31C228.6,314.6,223.3,319.9,216.8,319.9  L216.8,319.9z"/>
<rect x="239.5" y="249.6" class="st0" width="12" height="11.8"/>
<path class="st0" d="M193.6,346.3v-11.8h16.9c7.9,0,15.2-3.5,20.4-8.7c5.2-5.2,8.5-12.5,8.5-20.4v-37.2l0-0.8h12v0.1v38  c0,11.3-4.6,21.5-12,28.9c-7.4,7.4-17.7,12-28.9,12L193.6,346.3z"/>
<path d="M278,320l0.3-4.5c0,0,7.2,0.4,9.4,0.4c2.2,0,3.5-0.3,4.8-0.8c1.3-0.5,2.2-1,3-2.1c0.7-1.1,1.2-2.5,1.5-4.2  c0.3-1.7,0.4-3.7,0.4-6.1v-35.2h4.9v37.3c0,2.7-0.3,5-0.8,6.9c-0.5,1.9-1.4,3.5-2.6,4.8c-1.2,1.3-2.7,2.2-4.6,2.8  c-1.9,0.6-4.8,0.9-8,0.9S278,320,278,320z"/>
<path d="M318.7,267.5v32c0,3,0.3,5.5,1,7.6c0.7,2.1,1.7,3.8,3,5.1c1.3,1.3,2.9,2.3,4.8,2.9c1.9,0.6,4,0.9,6.4,0.9  c2.4,0,4.6-0.3,6.5-0.9s3.5-1.6,4.8-2.9c1.3-1.3,2.3-3,3-5.1c0.7-2.1,1-4.7,1-7.6v-32h4.9v33.1c0,2.7-0.4,5.2-1.1,7.6  c-0.7,2.4-1.9,4.5-3.6,6.3c-1.6,1.8-3.7,3.2-6.2,4.2c-2.5,1-5.6,1.6-9.2,1.6c-3.6,0-6.6-0.5-9.2-1.6c-2.5-1-4.6-2.5-6.2-4.2  c-1.6-1.8-2.8-3.9-3.6-6.3c-0.7-2.4-1.1-4.9-1.1-7.6v-33.1H318.7z"/>
<path d="M370.9,267.5l30.2,43.8h0.1v-43.8h4.9v51.7h-5.5l-30.2-43.8h-0.1v43.8h-4.9v-51.7H370.9z"/>
<path d="M417.3,283.1c1-3.2,2.5-6.1,4.6-8.6c2-2.5,4.6-4.5,7.6-5.9c3.1-1.5,6.6-2.2,10.7-2.2c4.1,0,7.6,0.7,10.7,2.2  c3,1.5,5.6,3.5,7.6,5.9c2,2.5,3.6,5.4,4.6,8.6c1,3.2,1.5,6.6,1.5,10.2c0,3.6-0.5,7-1.5,10.2c-1,3.2-2.5,6.1-4.6,8.6  c-2,2.5-4.6,4.4-7.6,5.9s-6.6,2.2-10.7,2.2c-4.1,0-7.6-0.7-10.7-2.2c-3.1-1.5-5.6-3.4-7.6-5.9c-2-2.5-3.6-5.3-4.6-8.6  c-1-3.2-1.5-6.6-1.5-10.2C415.8,289.8,416.3,286.4,417.3,283.1z M421.8,301.7c0.8,2.7,1.9,5.2,3.5,7.3c1.6,2.1,3.6,3.9,6.1,5.2  c2.5,1.3,5.4,2,8.8,2c3.4,0,6.4-0.7,8.8-2c2.4-1.3,4.4-3,6-5.2c1.6-2.1,2.7-4.6,3.5-7.3c0.7-2.7,1.1-5.5,1.1-8.3  c0-2.9-0.4-5.6-1.1-8.3c-0.8-2.7-1.9-5.1-3.5-7.3c-1.6-2.1-3.6-3.9-6-5.2c-2.4-1.3-5.4-2-8.8-2c-3.4,0-6.4,0.6-8.8,2  c-2.5,1.3-4.5,3-6.1,5.2c-1.6,2.1-2.7,4.6-3.5,7.3c-0.7,2.7-1.1,5.5-1.1,8.3C420.7,296.2,421.1,298.9,421.8,301.7z"/>
<path class="st1" d="M559.4,267.5v4.2h-18v47.5h-4.9v-47.5h-18v-4.2H559.4z"/>
<path class="st1" d="M581.7,267.5l20.3,51.7h-5.3l-6.3-16.1h-23.6l-6.2,16.1h-5.2l20.8-51.7H581.7z M588.8,298.9l-10-26.5  l-10.4,26.5H588.8z"/>
<path class="st1" d="M612.4,267.5l14.6,21.7l15.1-21.7h5.5L630,292.7l18.7,26.5h-5.9L627,296.4l-15.9,22.8h-5.5l18.6-26.7  l-17.5-25.1H612.4z"/>
<path d="M509.7,274.1c-4-4.2-9.9-6.4-17.8-6.6H474v4.2l15.4,0c3.7,0,6.9,0.4,9.6,1.2c2.7,0.8,4.9,2.1,6.6,3.8c1.7,1.7,3,4,3.8,6.7  c0.8,2.8,1.2,6.1,1.2,9.9c0,3.9-0.4,7.2-1.2,9.9c-0.8,2.8-2.1,5-3.8,6.7c-1.7,1.7-4,3-6.6,3.8c-2.7,0.8-5.9,1.2-9.6,1.2H479v-37.3  H474v41.5h17.9c7.9-0.2,13.8-2.4,17.8-6.6c4-4.2,6-10.6,6-19.2C515.7,284.8,513.7,278.4,509.7,274.1z"/>
</svg>